<svg xmlns="http://www.w3.org/2000/svg" xmlns:svg="http://www.w3.org/2000/svg" id="svg5909" width="246" height="237.5" version="1.0"><defs id="defs5911"><marker id="Arrow1Sstart" orient="auto" refX="0" refY="0" style="overflow:visible"><path id="path3674" d="M 0.0,0.0 L 5.0,-5.0 L -12.5,0.0 L 5.0,5.0 L 0.0,0.0 z" transform="scale(0.2) translate(6,0)" style="fill-rule:evenodd;stroke:#000;stroke-width:1pt;marker-start:none"/></marker><marker id="Arrow2Send" orient="auto" refX="0" refY="0" style="overflow:visible"><path id="path3695" d="M 8.7185878,4.0337352 L -2.2072895,0.016013256 L 8.7185884,-4.0017078 C 6.9730900,-1.6296469 6.9831476,1.6157441 8.7185878,4.0337352 z" transform="scale(0.3) rotate(180) translate(-2.3,0)" style="font-size:12;fill-rule:evenodd;stroke-width:.625;stroke-linejoin:round"/></marker><marker id="Arrow1Send" orient="auto" refX="0" refY="0" style="overflow:visible"><path id="path3677" d="M 0.0,0.0 L 5.0,-5.0 L -12.5,0.0 L 5.0,5.0 L 0.0,0.0 z" transform="scale(0.2) rotate(180) translate(6,0)" style="fill-rule:evenodd;stroke:#000;stroke-width:1pt;marker-start:none"/></marker><marker id="Arrow1Mend" orient="auto" refX="0" refY="0" style="overflow:visible"><path id="path3671" d="M 0,0 5,-5 -12.5,0 5,5 0,0 z" transform="matrix(-0.4,0,0,-0.4,-4,0)" style="fill-rule:evenodd;stroke:#000;stroke-width:1pt;marker-start:none"/></marker><marker id="Arrow1Mstart" orient="auto" refX="0" refY="0" style="overflow:visible"><path id="path3668" d="M 0,0 5,-5 -12.5,0 5,5 0,0 z" transform="matrix(0.4,0,0,0.4,4,0)" style="fill-rule:evenodd;stroke:#000;stroke-width:1pt;marker-start:none"/></marker><marker id="Arrow1Mend-1" orient="auto" refX="0" refY="0" style="overflow:visible"><path id="path3671-7" d="M 0,0 5,-5 -12.5,0 5,5 0,0 z" transform="matrix(-0.4,0,0,-0.4,-4,0)" style="fill-rule:evenodd;stroke:#000;stroke-width:1pt;marker-start:none"/></marker><marker id="Arrow1Mend-9" orient="auto" refX="0" refY="0" style="overflow:visible"><path id="path3671-4" d="M 0,0 5,-5 -12.5,0 5,5 0,0 z" transform="matrix(-0.4,0,0,-0.4,-4,0)" style="fill-rule:evenodd;stroke:#000;stroke-width:1pt;marker-start:none"/></marker></defs><metadata id="metadata5914"/><g id="layer1" transform="translate(38.5,20.5)"><path id="path6939" d="m 180,100 c 0,44.18278 -35.81722,80 -80,80 -44.18278,0 -80,-35.81722 -80,-80 0,-44.18278 35.81722,-80 80,-80 44.18278,0 80,35.81722 80,80 z" transform="matrix(-0.94718199,-0.01879329,0.01879329,-0.94718199,192.83887,196.59753)" style="fill:#fff;fill-opacity:1;fill-rule:nonzero;stroke:#000;stroke-width:1.5;stroke-linecap:square;stroke-linejoin:miter;stroke-miterlimit:4;stroke-opacity:1;stroke-dasharray:none;stroke-dashoffset:0"/><path id="path4706" d="m 190,100 c 0,49.70563 -40.29437,90 -90,90 -49.705627,0 -90,-40.29437 -90,-90 0,-49.705627 40.294373,-90 90,-90 49.70563,0 90,40.294373 90,90 z" style="fill:#d3d7cf;fill-opacity:1;fill-rule:nonzero;stroke:#000;stroke-width:1.5;stroke-linecap:square;stroke-linejoin:miter;stroke-miterlimit:4;stroke-opacity:1;stroke-dasharray:none;stroke-dashoffset:0"/><path style="fill:#73d216;fill-opacity:1;fill-rule:nonzero;stroke:#000;stroke-width:1.5;stroke-linecap:square;stroke-linejoin:miter;stroke-miterlimit:4;stroke-opacity:1;stroke-dasharray:none;stroke-dashoffset:0" id="path5917" d="M 10,99.999996 C 10.000002,50.294368 50.294377,9.9999977 100,10 c 49.70563,2e-6 90,40.294377 90,90 0,32.15391 -17.15391,61.86534 -45,77.94229 L 100,100 z"/><path id="path3653" d="M 145,22.057716 C 188.04634,46.910531 202.7951,101.95367 177.94228,145 170.04313,158.68173 158.68173,170.04314 145,177.94229 L 100,100 z" style="fill:#fcaf3e;fill-opacity:1;fill-rule:nonzero;stroke:#000;stroke-width:1.5;stroke-linecap:square;stroke-linejoin:miter;stroke-miterlimit:4;stroke-opacity:1;stroke-dasharray:none;stroke-dashoffset:0"/><path style="fill:none;stroke:#000;stroke-width:1.5;stroke-linecap:square;stroke-linejoin:miter;stroke-miterlimit:4;stroke-opacity:.66528931;stroke-dasharray:none" id="path5943" d="m 100,100 45,78"/><path style="fill:none;stroke:#000;stroke-width:1.5;stroke-linecap:square;stroke-linejoin:miter;stroke-miterlimit:4;stroke-opacity:.66528931;stroke-dasharray:none" id="path5953" d="M 100,100 145,22"/><g id="g6901" style="opacity:.30449827"><path id="path5921" d="m 10,100 180,0" style="fill:none;stroke:#000;stroke-width:1.5;stroke-linecap:butt;stroke-linejoin:miter;stroke-miterlimit:4;stroke-opacity:.66528931000000002;stroke-dasharray:none"/><path id="path5923" d="M 100,190 100,10" style="fill:none;stroke:#000;stroke-width:1.5;stroke-linecap:butt;stroke-linejoin:miter;stroke-miterlimit:4;stroke-opacity:.66528931000000002;stroke-dasharray:none"/><path id="path5925" d="m 100,100 63,63" style="fill:none;stroke:#000;stroke-width:1.5;stroke-linecap:square;stroke-linejoin:miter;stroke-miterlimit:4;stroke-opacity:.66528931000000002;stroke-dasharray:none"/><path id="path5927" d="M 100,100 37,37" style="fill:none;stroke:#000;stroke-width:1.5;stroke-linecap:square;stroke-linejoin:miter;stroke-miterlimit:4;stroke-opacity:.66528931000000002;stroke-dasharray:none"/><path id="path5929" d="M 100,100 163,37" style="fill:none;stroke:#000;stroke-width:1.5;stroke-linecap:square;stroke-linejoin:miter;stroke-miterlimit:4;stroke-opacity:.66528931000000002;stroke-dasharray:none"/><path id="path5931" d="M 100,100 37,163" style="fill:none;stroke:#000;stroke-width:1.5;stroke-linecap:square;stroke-linejoin:miter;stroke-miterlimit:4;stroke-opacity:.66528931000000002;stroke-dasharray:none"/><path id="path5933" d="M 100,100 13,123" style="fill:none;stroke:#000;stroke-width:1.5;stroke-linecap:square;stroke-linejoin:miter;stroke-miterlimit:4;stroke-opacity:.66528931000000002;stroke-dasharray:none"/><path id="path5935" d="M 100,100 22,145" style="fill:none;stroke:#000;stroke-width:1.5;stroke-linecap:butt;stroke-linejoin:miter;stroke-miterlimit:4;stroke-opacity:.66528931000000002;stroke-dasharray:none"/><path id="path5937" d="M 100,100 55,178" style="fill:none;stroke:#000;stroke-width:1.5;stroke-linecap:square;stroke-linejoin:miter;stroke-miterlimit:4;stroke-opacity:.66528931000000002;stroke-dasharray:none"/><path id="path5939" d="M 100,100 77,187" style="fill:none;stroke:#000;stroke-width:1.5;stroke-linecap:square;stroke-linejoin:miter;stroke-miterlimit:4;stroke-opacity:.66528931000000002;stroke-dasharray:none"/><path id="path5941" d="m 100,100 23,87" style="fill:none;stroke:#000;stroke-width:1.5;stroke-linecap:square;stroke-linejoin:miter;stroke-miterlimit:4;stroke-opacity:.66528931000000002;stroke-dasharray:none"/><path id="path5945" d="m 100,100 78,45" style="fill:none;stroke:#000;stroke-width:1.5;stroke-linecap:square;stroke-linejoin:miter;stroke-miterlimit:4;stroke-opacity:.66528931000000002;stroke-dasharray:none"/><path id="path5947" d="m 100,100 87,23" style="fill:none;stroke:#000;stroke-width:1.5;stroke-linecap:square;stroke-linejoin:miter;stroke-miterlimit:4;stroke-opacity:.66528931000000002;stroke-dasharray:none"/><path id="path5949" d="M 100,100 187,77" style="fill:none;stroke:#000;stroke-width:1.5;stroke-linecap:square;stroke-linejoin:miter;stroke-miterlimit:4;stroke-opacity:.66528931000000002;stroke-dasharray:none"/><path id="path5951" d="M 100,100 178,55" style="fill:none;stroke:#000;stroke-width:1.5;stroke-linecap:square;stroke-linejoin:miter;stroke-miterlimit:4;stroke-opacity:.66528931000000002;stroke-dasharray:none"/><path id="path5955" d="m 100,100 23,-87 0,0" style="fill:none;stroke:#000;stroke-width:1.5;stroke-linecap:square;stroke-linejoin:miter;stroke-miterlimit:4;stroke-opacity:.66528931000000002;stroke-dasharray:none"/><path id="path5957" d="M 100,100 77,13" style="fill:none;stroke:#000;stroke-width:1.5;stroke-linecap:square;stroke-linejoin:miter;stroke-miterlimit:4;stroke-opacity:.66528931000000002;stroke-dasharray:none"/><path id="path5959" d="M 100,100 55,22" style="fill:none;stroke:#000;stroke-width:1.5;stroke-linecap:square;stroke-linejoin:miter;stroke-miterlimit:4;stroke-opacity:.66528931000000002;stroke-dasharray:none"/><path id="path5961" d="M 100,100 22,55" style="fill:none;stroke:#000;stroke-width:1.5;stroke-linecap:square;stroke-linejoin:miter;stroke-miterlimit:4;stroke-opacity:.66528931000000002;stroke-dasharray:none"/><path id="path5963" d="M 100,100 13,77" style="fill:none;stroke:#000;stroke-width:1.5;stroke-linecap:square;stroke-linejoin:miter;stroke-miterlimit:4;stroke-opacity:.66528931000000002;stroke-dasharray:none"/></g><path style="fill:#fff;fill-opacity:1;fill-rule:nonzero;stroke:#000;stroke-width:1.5;stroke-linecap:square;stroke-linejoin:miter;stroke-miterlimit:4;stroke-opacity:1;stroke-dasharray:none;stroke-dashoffset:0" id="path5919" d="m 180,100 c 0,44.18278 -35.81722,80 -80,80 -44.18278,0 -80,-35.81722 -80,-80 0,-44.18278 35.81722,-80 80,-80 44.18278,0 80,35.81722 80,80 z" transform="matrix(0.90092879,0,0,0.90092879,9.907121,9.907121)"/><g id="g7562" style="color:#000;fill:#000;fill-opacity:1;fill-rule:evenodd;stroke:#000;stroke-width:.59999999999999998pt;stroke-linecap:butt;stroke-linejoin:miter;stroke-miterlimit:4;stroke-opacity:1;stroke-dasharray:none;stroke-dashoffset:0;marker:none;visibility:visible;display:inline;overflow:visible;enable-background:accumulate"><path style="font-size:medium;font-style:normal;font-variant:normal;font-weight:400;font-stretch:normal;text-indent:0;text-align:start;text-decoration:none;line-height:normal;letter-spacing:normal;word-spacing:normal;text-transform:none;direction:ltr;block-progression:tb;writing-mode:lr-tb;text-anchor:start;color:#000;fill:#000;fill-opacity:1;stroke:#000;stroke-width:.59999999999999998pt;marker:none;visibility:visible;display:inline;overflow:visible;enable-background:accumulate;font-family:Bitstream Vera Sans;-inkscape-font-specification:Bitstream Vera Sans;fill-rule:evenodd;stroke-linecap:butt;stroke-linejoin:miter;stroke-miterlimit:4;stroke-opacity:1;stroke-dasharray:none;stroke-dashoffset:0" id="path3657" d="m 161.46154,-7.9639423 -0.375,0.65625 -16.38652,28.3092143 -0.375,0.65625 1.3125,0.75 0.375,-0.65625 16.35527,-28.3092143 0.375,-0.65625 -1.28125,-0.75 z"/><path style="fill-rule:evenodd;stroke:#000;stroke-width:.59999999999999998pt;marker-start:none;color:#000;fill:#000;fill-opacity:1;stroke-linecap:butt;stroke-linejoin:miter;stroke-miterlimit:4;stroke-opacity:1;stroke-dasharray:none;stroke-dashoffset:0;marker:none;visibility:visible;display:inline;overflow:visible;enable-background:accumulate" id="path7568" d="m 161.2636,-6.1902334 1.09938,4.0977241 2.64853,-10.5941157 -7.84564,7.5957811 4.09773,-1.0993895 z"/></g><g id="g7516" style="color:#000;fill:#000;fill-opacity:1;fill-rule:evenodd;stroke:#000;stroke-width:.59999999999999998pt;stroke-linecap:butt;stroke-linejoin:miter;stroke-miterlimit:4;stroke-opacity:1;stroke-dasharray:none;stroke-dashoffset:0;marker:none;visibility:visible;display:inline;overflow:visible;enable-background:accumulate"><path style="font-size:medium;font-style:normal;font-variant:normal;font-weight:400;font-stretch:normal;text-indent:0;text-align:start;text-decoration:none;line-height:normal;letter-spacing:normal;word-spacing:normal;text-transform:none;direction:ltr;block-progression:tb;writing-mode:lr-tb;text-anchor:start;color:#000;fill:#000;fill-opacity:1;stroke:#000;stroke-width:.59999999999999998pt;marker:none;visibility:visible;display:inline;overflow:visible;enable-background:accumulate;font-family:Bitstream Vera Sans;-inkscape-font-specification:Bitstream Vera Sans;fill-rule:evenodd;stroke-linecap:butt;stroke-linejoin:miter;stroke-miterlimit:4;stroke-opacity:1;stroke-dasharray:none;stroke-dashoffset:0" id="path4663" d="m 36.625,117.5 2.25,2.25 -31.875,0 -0.75,0 0,1.5 0.75,0 31.875,0 -2.25,2.25 10.5,-3 -10.5,-3 z" transform="translate(-38.5,-20.5)"/></g><g id="g7545"><path style="font-size:medium;font-style:normal;font-variant:normal;font-weight:400;font-stretch:normal;text-indent:0;text-align:start;text-decoration:none;line-height:normal;letter-spacing:normal;word-spacing:normal;text-transform:none;direction:ltr;block-progression:tb;writing-mode:lr-tb;text-anchor:start;color:#000;fill:#000;fill-opacity:1;stroke:#000;stroke-width:.59999999999999998pt;marker:none;visibility:visible;display:inline;overflow:visible;enable-background:accumulate;font-family:Bitstream Vera Sans;-inkscape-font-specification:Bitstream Vera Sans;fill-rule:evenodd;stroke-linecap:butt;stroke-linejoin:miter;stroke-miterlimit:4;stroke-opacity:1;stroke-dasharray:none;stroke-dashoffset:0" id="path4692" d="m 148.71008,182.93774 -1.28125,0.75 0.375,0.65625 15.78992,27.37476 0.375,0.625 1.28125,-0.75 -0.375,-0.625 -15.78992,-27.37476 -0.375,-0.65625 z"/><path style="fill-rule:evenodd;stroke:#000;stroke-width:.6pt;marker-start:none" id="path7551" d="m 149.51747,185.8303 4.09773,1.09939 -7.84564,-7.59578 2.64853,10.59412 1.09938,-4.09773 z"/></g><text style="font-size:21.79795456px;font-style:normal;font-weight:400;fill:#000;fill-opacity:1;stroke:none;font-family:Verdana;-inkscape-font-specification:Verdana" id="text6873" x="37.618" y="106.083" xml:space="preserve"><tspan id="tspan6875" x="37.618" y="106.083">Ring Buffer</tspan></text><text id="text6877" x="-32.212" y="84.949" xml:space="preserve" style="font-size:8.45974541px;font-style:normal;font-weight:400;fill:#000;fill-opacity:1;stroke:none;font-family:Verdana;-inkscape-font-specification:Verdana"><tspan id="tspan6879" x="-32.212" y="84.949">Add new</tspan><tspan id="tspan6881" x="-32.212" y="95.524">data</tspan></text><text style="font-size:8.45974541px;font-style:normal;font-weight:400;fill:#000;fill-opacity:1;stroke:none;font-family:Verdana;-inkscape-font-specification:Verdana" id="text6883" x="108.788" y="-6.551" xml:space="preserve"><tspan id="tspan6887" x="108.788" y="-6.551">Fetch data</tspan></text><text style="font-size:8.45974541px;font-style:normal;font-weight:400;fill:#000;fill-opacity:1;stroke:none;font-family:Verdana;-inkscape-font-specification:Verdana" id="text6891" x="164.788" y="196.449" xml:space="preserve"><tspan id="tspan6895" x="164.788" y="196.449">Release</tspan><tspan id="tspan6899" x="164.788" y="207.024">old data</tspan></text><path id="path7578" d="M 110.795,179.26833 A 80,80 0 0 1 20.97222,112.43423" transform="matrix(1.0126188,0,0,1.0126188,-1.3456493,-1.1781142)" style="fill:none;stroke:#000;stroke-width:3.95015383;stroke-linecap:round;stroke-linejoin:miter;stroke-miterlimit:4;stroke-opacity:1;stroke-dasharray:none;stroke-dashoffset:0;marker-start:url(#Arrow1Sstart);marker-end:none"/></g></svg>